<svg width="179" height="56" viewBox="0 0 179 56" fill="none" xmlns="http://www.w3.org/2000/svg">
<path d="M3.94 46.675L0.755 40.76H3.296L4.983 44.281L6.677 40.76H9.204L6.033 46.675V50H3.94V46.675ZM11.2023 45.373C11.2023 45.9003 11.3096 46.3787 11.5243 46.808C11.7436 47.2327 12.0446 47.571 12.4273 47.823C12.8146 48.075 13.2626 48.201 13.7713 48.201C14.2799 48.201 14.7256 48.075 15.1083 47.823C15.4956 47.571 15.7966 47.2327 16.0113 46.808C16.2306 46.3787 16.3403 45.9003 16.3403 45.373C16.3403 44.8457 16.2306 44.3697 16.0113 43.945C15.7966 43.5203 15.4956 43.182 15.1083 42.93C14.7256 42.6733 14.2799 42.545 13.7713 42.545C13.2626 42.545 12.8146 42.6733 12.4273 42.93C12.0446 43.182 11.7436 43.5203 11.5243 43.945C11.3096 44.3697 11.2023 44.8457 11.2023 45.373ZM9.02528 45.373C9.02528 44.701 9.14428 44.0757 9.38228 43.497C9.62028 42.9137 9.95395 42.405 10.3833 41.971C10.8126 41.537 11.3166 41.1987 11.8953 40.956C12.4739 40.7133 13.0993 40.592 13.7713 40.592C14.4526 40.592 15.0803 40.7133 15.6543 40.956C16.2329 41.1987 16.7346 41.537 17.1593 41.971C17.5886 42.405 17.9199 42.9137 18.1533 43.497C18.3913 44.0757 18.5103 44.701 18.5103 45.373C18.5103 46.0497 18.3959 46.6797 18.1673 47.263C17.9386 47.8417 17.6119 48.3503 17.1873 48.789C16.7626 49.223 16.2609 49.5613 15.6823 49.804C15.1036 50.0467 14.4666 50.168 13.7713 50.168C13.0619 50.168 12.4156 50.0467 11.8323 49.804C11.2536 49.5613 10.7543 49.223 10.3343 48.789C9.91428 48.3503 9.58995 47.8417 9.36128 47.263C9.13728 46.6797 9.02528 46.0497 9.02528 45.373ZM25.0509 40.76H27.1439V46.437C27.1439 47.1977 26.9946 47.858 26.6959 48.418C26.3972 48.9733 25.9702 49.405 25.4149 49.713C24.8596 50.0163 24.1969 50.168 23.4269 50.168C22.6522 50.168 21.9849 50.0163 21.4249 49.713C20.8649 49.405 20.4356 48.9733 20.1369 48.418C19.8429 47.858 19.6959 47.1977 19.6959 46.437V40.76H21.7819V46.325C21.7819 46.745 21.8472 47.0997 21.9779 47.389C22.1132 47.6783 22.3046 47.8977 22.5519 48.047C22.7992 48.1917 23.0909 48.264 23.4269 48.264C23.7582 48.264 24.0452 48.1917 24.2879 48.047C24.5306 47.8977 24.7172 47.6783 24.8479 47.389C24.9832 47.0997 25.0509 46.745 25.0509 46.325V40.76ZM28.582 40.76H32.348C32.8846 40.76 33.363 40.872 33.783 41.096C34.203 41.32 34.5343 41.6443 34.777 42.069C35.0243 42.489 35.148 42.9907 35.148 43.574C35.148 44.1573 35.043 44.6357 34.833 45.009C34.6276 45.3777 34.3803 45.6553 34.091 45.842C33.8016 46.024 33.5333 46.1337 33.286 46.171L35.533 50H33.181L31.179 46.332H30.675V50H28.582V40.76ZM30.675 44.883H31.599C31.9723 44.883 32.299 44.792 32.579 44.61C32.859 44.428 32.999 44.106 32.999 43.644C32.999 43.182 32.8613 42.8623 32.586 42.685C32.3106 42.503 31.9863 42.412 31.613 42.412H30.675V44.883ZM40.6702 40.76H46.0112V42.594H42.7632V44.456H45.7662V46.283H42.7632V50H40.6702V40.76ZM52.6818 40.76H54.7748V46.437C54.7748 47.1977 54.6254 47.858 54.3268 48.418C54.0281 48.9733 53.6011 49.405 53.0458 49.713C52.4904 50.0163 51.8278 50.168 51.0578 50.168C50.2831 50.168 49.6158 50.0163 49.0558 49.713C48.4958 49.405 48.0664 48.9733 47.7678 48.418C47.4738 47.858 47.3268 47.1977 47.3268 46.437V40.76H49.4128V46.325C49.4128 46.745 49.4781 47.0997 49.6088 47.389C49.7441 47.6783 49.9354 47.8977 50.1828 48.047C50.4301 48.1917 50.7218 48.264 51.0578 48.264C51.3891 48.264 51.6761 48.1917 51.9188 48.047C52.1614 47.8977 52.3481 47.6783 52.4788 47.389C52.6141 47.0997 52.6818 46.745 52.6818 46.325V40.76ZM57.9768 42.594H55.7718V40.76H62.2678V42.594H60.0698V50H57.9768V42.594ZM68.7325 40.76H70.8255V46.437C70.8255 47.1977 70.6762 47.858 70.3775 48.418C70.0789 48.9733 69.6519 49.405 69.0965 49.713C68.5412 50.0163 67.8785 50.168 67.1085 50.168C66.3339 50.168 65.6665 50.0163 65.1065 49.713C64.5465 49.405 64.1172 48.9733 63.8185 48.418C63.5245 47.858 63.3775 47.1977 63.3775 46.437V40.76H65.4635V46.325C65.4635 46.745 65.5289 47.0997 65.6595 47.389C65.7949 47.6783 65.9862 47.8977 66.2335 48.047C66.4809 48.1917 66.7725 48.264 67.1085 48.264C67.4399 48.264 67.7269 48.1917 67.9695 48.047C68.2122 47.8977 68.3989 47.6783 68.5295 47.389C68.6649 47.0997 68.7325 46.745 68.7325 46.325V40.76ZM72.2636 40.76H76.0296C76.5663 40.76 77.0446 40.872 77.4646 41.096C77.8846 41.32 78.2159 41.6443 78.4586 42.069C78.7059 42.489 78.8296 42.9907 78.8296 43.574C78.8296 44.1573 78.7246 44.6357 78.5146 45.009C78.3093 45.3777 78.0619 45.6553 77.7726 45.842C77.4833 46.024 77.2149 46.1337 76.9676 46.171L79.2146 50H76.8626L74.8606 46.332H74.3566V50H72.2636V40.76ZM74.3566 44.883H75.2806C75.6539 44.883 75.9806 44.792 76.2606 44.61C76.5406 44.428 76.6806 44.106 76.6806 43.644C76.6806 43.182 76.5429 42.8623 76.2676 42.685C75.9923 42.503 75.6679 42.412 75.2946 42.412H74.3566V44.883ZM80.5908 40.76H86.4918V42.594H82.6768V44.477H86.4568V46.255H82.6768V48.166H86.4918V50H80.5908V40.76ZM96.6674 48.096C97.0967 48.096 97.4864 48.033 97.8364 47.907C98.191 47.781 98.4547 47.6573 98.6274 47.536L99.5234 49.314C99.304 49.5007 98.9284 49.6897 98.3964 49.881C97.869 50.0723 97.2414 50.168 96.5134 50.168C95.832 50.168 95.1927 50.049 94.5954 49.811C93.998 49.573 93.4707 49.2393 93.0134 48.81C92.5607 48.376 92.2037 47.8697 91.9424 47.291C91.6857 46.7077 91.5574 46.0753 91.5574 45.394C91.5574 44.7127 91.6857 44.0803 91.9424 43.497C92.199 42.909 92.5537 42.398 93.0064 41.964C93.4637 41.53 93.991 41.194 94.5884 40.956C95.1904 40.7133 95.832 40.592 96.5134 40.592C97.2414 40.592 97.869 40.6877 98.3964 40.879C98.9284 41.0703 99.304 41.2593 99.5234 41.446L98.6274 43.224C98.4547 43.098 98.191 42.9743 97.8364 42.853C97.4864 42.727 97.0967 42.664 96.6674 42.664C96.1914 42.664 95.776 42.7387 95.4214 42.888C95.0667 43.0327 94.7704 43.2333 94.5324 43.49C94.2944 43.7467 94.117 44.036 94.0004 44.358C93.8837 44.68 93.8254 45.0183 93.8254 45.373C93.8254 45.7323 93.8837 46.0753 94.0004 46.402C94.117 46.724 94.2944 47.0133 94.5324 47.27C94.7704 47.5267 95.0667 47.7297 95.4214 47.879C95.776 48.0237 96.1914 48.096 96.6674 48.096ZM103.794 40.76H105.873L109.52 50H107.287L106.615 48.145H103.059L102.38 50H100.14L103.794 40.76ZM103.759 46.311H105.922L104.851 43.28H104.83L103.759 46.311ZM110.217 40.76H113.983C114.519 40.76 114.998 40.872 115.418 41.096C115.838 41.32 116.169 41.6443 116.412 42.069C116.659 42.489 116.783 42.9907 116.783 43.574C116.783 44.1573 116.678 44.6357 116.468 45.009C116.262 45.3777 116.015 45.6553 115.726 45.842C115.436 46.024 115.168 46.1337 114.921 46.171L117.168 50H114.816L112.814 46.332H112.31V50H110.217V40.76ZM112.31 44.883H113.234C113.607 44.883 113.934 44.792 114.214 44.61C114.494 44.428 114.634 44.106 114.634 43.644C114.634 43.182 114.496 42.8623 114.221 42.685C113.945 42.503 113.621 42.412 113.248 42.412H112.31V44.883Z" fill="black"/>
<path d="M46.6645 34V30.7415C46.5175 31.0682 46.1418 31.5418 45.5375 32.1625C44.9495 32.7832 44.1655 33.3467 43.1855 33.853C42.2055 34.343 41.0622 34.588 39.7555 34.588C37.7955 34.588 36.0805 34.1143 34.6105 33.167C33.1405 32.2033 31.9972 30.9212 31.1805 29.3205C30.3638 27.7035 29.9555 25.915 29.9555 23.955C29.9555 21.995 30.3638 20.2147 31.1805 18.614C31.9972 16.997 33.1405 15.7067 34.6105 14.743C36.0805 13.7793 37.7955 13.2975 39.7555 13.2975C41.0132 13.2975 42.1157 13.5017 43.063 13.91C44.0103 14.302 44.778 14.7757 45.366 15.331C45.954 15.87 46.3623 16.3682 46.591 16.8255V13.8855H53.99V34H46.6645ZM37.2565 23.955C37.2565 24.8697 37.4688 25.6945 37.8935 26.4295C38.3182 27.1482 38.8817 27.7117 39.584 28.12C40.3027 28.5283 41.0948 28.7325 41.9605 28.7325C42.8588 28.7325 43.651 28.5283 44.337 28.12C45.023 27.7117 45.562 27.1482 45.954 26.4295C46.3623 25.6945 46.5665 24.8697 46.5665 23.955C46.5665 23.0403 46.3623 22.2237 45.954 21.505C45.562 20.77 45.023 20.1983 44.337 19.79C43.651 19.3653 42.8588 19.153 41.9605 19.153C41.0948 19.153 40.3027 19.3653 39.584 19.79C38.8817 20.1983 38.3182 20.77 37.8935 21.505C37.4688 22.2237 37.2565 23.0403 37.2565 23.955ZM65.7722 23.1955C65.7722 24.7962 66.0744 26.0783 66.6787 27.042C67.283 27.9893 68.2957 28.463 69.7167 28.463C71.1704 28.463 72.1912 27.9893 72.7792 27.042C73.3835 26.0783 73.6857 24.7962 73.6857 23.1955V13.8855H81.0357V23.9795C81.0357 26.1355 80.5865 28.0138 79.6882 29.6145C78.8062 31.1988 77.524 32.4238 75.8417 33.2895C74.1594 34.1552 72.1177 34.588 69.7167 34.588C67.332 34.588 65.2985 34.1552 63.6162 33.2895C61.9339 32.4238 60.6517 31.1988 59.7697 29.6145C58.8877 28.0138 58.4467 26.1355 58.4467 23.9795V13.8855H65.7722V23.1955ZM83.6545 13.8855H87.0845V5.629H94.459V13.8855H98.967V20.0105H94.459V25.621C94.459 26.454 94.5815 27.1318 94.8265 27.6545C95.0715 28.1608 95.5207 28.414 96.174 28.414C96.615 28.414 96.9907 28.316 97.301 28.12C97.6114 27.924 97.7992 27.7933 97.8645 27.728L100.413 33.02C100.298 33.118 99.9389 33.2977 99.3345 33.559C98.7465 33.8203 97.9952 34.0572 97.0805 34.2695C96.1659 34.4818 95.145 34.588 94.018 34.588C92.009 34.588 90.3512 34.0245 89.0445 32.8975C87.7379 31.7542 87.0845 29.9983 87.0845 27.63V20.0105H83.6545V13.8855ZM113.411 34.588C111.206 34.588 109.246 34.1388 107.531 33.2405C105.833 32.3258 104.493 31.0763 103.513 29.492C102.55 27.8913 102.068 26.062 102.068 24.004C102.068 21.946 102.55 20.1167 103.513 18.516C104.493 16.899 105.833 15.625 107.531 14.694C109.246 13.763 111.206 13.2975 113.411 13.2975C115.616 13.2975 117.56 13.763 119.242 14.694C120.925 15.625 122.239 16.899 123.187 18.516C124.134 20.1167 124.608 21.946 124.608 24.004C124.608 26.062 124.134 27.8913 123.187 29.492C122.239 31.0763 120.925 32.3258 119.242 33.2405C117.56 34.1388 115.616 34.588 113.411 34.588ZM113.411 28.463C114.261 28.463 114.996 28.2752 115.616 27.8995C116.237 27.5238 116.719 26.993 117.062 26.307C117.405 25.621 117.576 24.8452 117.576 23.9795C117.576 23.0975 117.405 22.3135 117.062 21.6275C116.719 20.9415 116.237 20.4025 115.616 20.0105C114.996 19.6185 114.261 19.4225 113.411 19.4225C112.562 19.4225 111.819 19.6185 111.182 20.0105C110.561 20.4025 110.071 20.9415 109.712 21.6275C109.369 22.3135 109.197 23.0975 109.197 23.9795C109.197 24.8452 109.369 25.621 109.712 26.307C110.071 26.993 110.561 27.5238 111.182 27.8995C111.819 28.2752 112.562 28.463 113.411 28.463ZM135.932 34H128.459V0.287999H135.932V34ZM140.979 34V13.8855H148.427V34H140.979ZM144.801 9.745C143.625 9.745 142.628 9.33666 141.812 8.52C140.995 7.687 140.587 6.69883 140.587 5.5555C140.587 4.41217 140.995 3.424 141.812 2.591C142.645 1.74166 143.641 1.317 144.801 1.317C145.568 1.317 146.271 1.513 146.908 1.905C147.545 2.28067 148.059 2.787 148.451 3.424C148.843 4.061 149.039 4.7715 149.039 5.5555C149.039 6.69883 148.623 7.687 147.79 8.52C146.957 9.33666 145.96 9.745 144.801 9.745ZM168.724 23.1955L177.274 34H169.018L164.265 27.8015L159.512 34H151.819L160.345 23.7835L152.676 13.8855H161.006L164.73 19.055L168.626 13.8855H176.172L168.724 23.1955Z" fill="black"/>
<rect x="129" y="38" width="7" height="15" fill="black"/>
</svg>
